<?xml version="1.0" encoding="UTF-8" standalone="no"?>
<!-- Generator: Adobe Illustrator 16.0.0, SVG Export Plug-In . SVG Version: 6.00 Build 0)  -->

<svg
   xmlns:dc="http://purl.org/dc/elements/1.1/"
   xmlns:cc="http://creativecommons.org/ns#"
   xmlns:rdf="http://www.w3.org/1999/02/22-rdf-syntax-ns#"
   xmlns:svg="http://www.w3.org/2000/svg"
   xmlns="http://www.w3.org/2000/svg"
   xmlns:sodipodi="http://sodipodi.sourceforge.net/DTD/sodipodi-0.dtd"
   xmlns:inkscape="http://www.inkscape.org/namespaces/inkscape"
   version="1.1"
   id="Layer_1"
   x="0px"
   y="0px"
   width="32px"
   height="32px"
   viewBox="0 0 32 32"
   enable-background="new 0 0 32 32"
   xml:space="preserve"
   inkscape:version="0.91 r13725"
   sodipodi:docname="bulbwhite.svg"><metadata
     id="metadata4709"><rdf:RDF><cc:Work
         rdf:about=""><dc:format>image/svg+xml</dc:format><dc:type
           rdf:resource="http://purl.org/dc/dcmitype/StillImage" /><dc:title></dc:title></cc:Work></rdf:RDF></metadata><defs
     id="defs4707" /><sodipodi:namedview
     pagecolor="#ffffff"
     bordercolor="#666666"
     borderopacity="1"
     objecttolerance="10"
     gridtolerance="10"
     guidetolerance="10"
     inkscape:pageopacity="0"
     inkscape:pageshadow="2"
     inkscape:window-width="686"
     inkscape:window-height="480"
     id="namedview4705"
     showgrid="false"
     inkscape:zoom="7.375"
     inkscape:cx="16"
     inkscape:cy="16"
     inkscape:window-x="-8"
     inkscape:window-y="-8"
     inkscape:window-maximized="1"
     inkscape:current-layer="bulb" /><g
     id="bulb"><path
       fill="#333333"
       d="M16,0C9.924,0,5,4.924,5,11c0,4.031,3.688,8.303,5.031,12.055C12.034,28.65,11.812,32,16,32   c4.25,0,3.965-3.334,5.969-8.922C23.316,19.318,27,15,27,11C27,4.924,22.074,0,16,0z M18.592,27.176l-4.958,0.619   c-0.177-0.512-0.367-1.111-0.598-1.893c-0.003-0.01-0.007-0.021-0.009-0.031l6.188-0.773c-0.088,0.295-0.182,0.605-0.264,0.883   C18.82,26.43,18.703,26.82,18.592,27.176z M12.736,24.908c-0.182-0.602-0.387-1.236-0.615-1.908h7.766   c-0.123,0.359-0.246,0.719-0.352,1.059L12.736,24.908z M16,30c-1.013,0-1.479-0.117-1.997-1.25l4.238-0.531   C17.627,29.873,17.18,30,16,30z M20.672,21h-9.333c-0.498-1.08-1.096-2.16-1.686-3.217C8.348,15.448,7,13.033,7,11   c0-4.963,4.037-9,9-9c4.963,0,9,4.037,9,9c0,2.018-1.35,4.446-2.656,6.795C21.76,18.848,21.166,19.926,20.672,21z"
       id="path4701"
       style="fill:#f9f9f9" /><path
       fill="#333333"
       d="M16,5c-3.309,0-6,2.691-6,6c0,0.276,0.224,0.5,0.5,0.5S11,11.276,11,11c0-2.757,2.243-5,5-5   c0.276,0,0.5-0.224,0.5-0.5S16.275,5,16,5z"
       id="path4703"
       style="fill:#f9f9f9" /></g></svg>